<svg width="96" height="96" viewBox="0 0 96 96" fill="none" xmlns="http://www.w3.org/2000/svg">
  <defs>
    <linearGradient id="bg" x1="14" y1="14" x2="82" y2="82" gradientUnits="userSpaceOnUse">
      <stop stop-color="#1B416C"/>
      <stop offset="1" stop-color="#112C49"/>
    </linearGradient>
    <linearGradient id="paper" x1="28" y1="22" x2="64" y2="72" gradientUnits="userSpaceOnUse">
      <stop stop-color="#FFFFFF"/>
      <stop offset="1" stop-color="#E7EFF8"/>
    </linearGradient>
    <linearGradient id="accent" x1="53" y1="53" x2="72" y2="72" gradientUnits="userSpaceOnUse">
      <stop stop-color="#2FAF78"/>
      <stop offset="1" stop-color="#1C8A5C"/>
    </linearGradient>
    <linearGradient id="ink" x1="35" y1="30" x2="57" y2="64" gradientUnits="userSpaceOnUse">
      <stop stop-color="#6C839C"/>
      <stop offset="1" stop-color="#8FA2B6"/>
    </linearGradient>
    <filter id="shadow" x="10" y="10" width="76" height="76" filterUnits="userSpaceOnUse" color-interpolation-filters="sRGB">
      <feFlood flood-opacity="0" result="BackgroundImageFix"/>
      <feColorMatrix in="SourceAlpha" type="matrix" values="0 0 0 0 0 0 0 0 0 0 0 0 0 0 0 0 0 0 127 0" result="hardAlpha"/>
      <feOffset dy="4"/>
      <feGaussianBlur stdDeviation="4"/>
      <feColorMatrix type="matrix" values="0 0 0 0 0.0627 0 0 0 0 0.1647 0 0 0 0 0.2784 0 0 0 0.2 0"/>
      <feBlend mode="normal" in2="BackgroundImageFix" result="effect1_dropShadow_0_1"/>
      <feBlend mode="normal" in="SourceGraphic" in2="effect1_dropShadow_0_1" result="shape"/>
    </filter>
  </defs>

  <g filter="url(#shadow)">
    <rect x="12" y="12" width="72" height="72" rx="22" fill="url(#bg)"/>
  </g>
  <rect x="13.25" y="13.25" width="69.5" height="69.5" rx="20.75" stroke="white" stroke-opacity="0.1" stroke-width="1.5"/>

  <path d="M30 24C30 22.9 30.9 22 32 22H53.5L62 30.6V68C62 69.1 61.1 70 60 70H32C30.9 70 30 69.1 30 68V24Z" fill="url(#paper)"/>
  <path d="M53.5 22V28.8C53.5 30 54.5 31 55.7 31H62" fill="#D7E3EF"/>
  <path d="M53.5 22V28.8C53.5 30 54.5 31 55.7 31H62" stroke="#C6D5E4" stroke-width="1.2" stroke-linejoin="round"/>

  <rect x="36" y="34" width="20" height="4" rx="2" fill="#5E7893"/>
  <rect x="36" y="43" width="18" height="4" rx="2" fill="url(#ink)"/>
  <rect x="36" y="52" width="14" height="4" rx="2" fill="url(#ink)"/>
  <rect x="36" y="61" width="10" height="4" rx="2" fill="#A5B5C5"/>

  <circle cx="63" cy="61" r="11" fill="url(#accent)"/>
  <circle cx="63" cy="61" r="10.25" stroke="white" stroke-opacity="0.18" stroke-width="1.5"/>
  <path d="M58.4 61.3L61.5 64.4L67.6 57.8" stroke="white" stroke-width="3.5" stroke-linecap="round" stroke-linejoin="round"/>
</svg>
