<svg viewBox="0 0 64 64" width="128" height="128" xmlns="http://www.w3.org/2000/svg" fill="none">
  <defs>
    <linearGradient id="bg" x1="8" y1="6" x2="56" y2="58" gradientUnits="userSpaceOnUse">
      <stop stop-color="#121a2b"/>
      <stop offset="1" stop-color="#0b1220"/>
    </linearGradient>
    <linearGradient id="frame" x1="14" y1="12" x2="50" y2="52" gradientUnits="userSpaceOnUse">
      <stop stop-color="#8b5cf6"/>
      <stop offset="0.55" stop-color="#3b82f6"/>
      <stop offset="1" stop-color="#22c55e"/>
    </linearGradient>
    <linearGradient id="paper" x1="18" y1="16" x2="42" y2="44" gradientUnits="userSpaceOnUse">
      <stop stop-color="#f8fafc"/>
      <stop offset="1" stop-color="#dbeafe"/>
    </linearGradient>
    <linearGradient id="accent" x1="35" y1="35" x2="53" y2="53" gradientUnits="userSpaceOnUse">
      <stop stop-color="#34d399"/>
      <stop offset="1" stop-color="#16a34a"/>
    </linearGradient>
  </defs>

  <rect width="64" height="64" rx="18" fill="url(#bg)"/>
  <rect x="4" y="4" width="56" height="56" rx="14" stroke="#ffffff" stroke-opacity="0.08"/>
  <circle cx="46" cy="16" r="12" fill="#8b5cf6" fill-opacity="0.10"/>

  <rect x="16" y="12" width="30" height="40" rx="8" fill="url(#paper)"/>
  <path d="M24 12h14v8a3 3 0 0 1-3 3h-8a3 3 0 0 1-3-3v-8Z" fill="url(#frame)"/>

  <rect x="22" y="28" width="16" height="3" rx="1.5" fill="#94a3b8"/>
  <rect x="22" y="34" width="12" height="3" rx="1.5" fill="#cbd5e1"/>
  <rect x="22" y="40" width="10" height="3" rx="1.5" fill="#cbd5e1"/>

  <circle cx="44" cy="44" r="11" fill="url(#accent)"/>
  <path d="M39.5 44.2 42.8 47.5 48.9 40.8" stroke="white" stroke-width="3.2" stroke-linecap="round" stroke-linejoin="round"/>
</svg>
