<svg viewBox="0 0 128 128" xmlns="http://www.w3.org/2000/svg" fill="none">
  <defs>
    <linearGradient id="icon-bg" x1="12" y1="10" x2="114" y2="118" gradientUnits="userSpaceOnUse">
      <stop stop-color="#149286"/>
      <stop offset="1" stop-color="#0f766e"/>
    </linearGradient>
    <linearGradient id="paper-fill" x1="32" y1="32" x2="92" y2="96" gradientUnits="userSpaceOnUse">
      <stop stop-color="#ffffff"/>
      <stop offset="1" stop-color="#f7faf9"/>
    </linearGradient>
    <linearGradient id="line-primary" x1="41" y1="49" x2="80" y2="49" gradientUnits="userSpaceOnUse">
      <stop stop-color="#0f766e"/>
      <stop offset="1" stop-color="#16998f"/>
    </linearGradient>
    <linearGradient id="line-accent" x1="41" y1="62" x2="72" y2="62" gradientUnits="userSpaceOnUse">
      <stop stop-color="#bc6c25"/>
      <stop offset="1" stop-color="#d08a42"/>
    </linearGradient>
    <linearGradient id="badge-accent" x1="73" y1="38" x2="92" y2="57" gradientUnits="userSpaceOnUse">
      <stop stop-color="#d48c4a"/>
      <stop offset="1" stop-color="#bc6c25"/>
    </linearGradient>
    <linearGradient id="badge-green" x1="69" y1="70" x2="95" y2="96" gradientUnits="userSpaceOnUse">
      <stop stop-color="#31d36c"/>
      <stop offset="1" stop-color="#117a51"/>
    </linearGradient>
    <filter id="shadow" x="18" y="20" width="92" height="94" filterUnits="userSpaceOnUse" color-interpolation-filters="sRGB">
      <feDropShadow dx="0" dy="12" stdDeviation="10" flood-color="#0d4f49" flood-opacity=".22"/>
    </filter>
  </defs>

  <rect width="128" height="128" rx="30" fill="url(#icon-bg)"/>
  <rect x="3" y="3" width="122" height="122" rx="27" stroke="#ffffff" stroke-opacity=".08"/>
  <circle cx="102" cy="26" r="18" fill="#ffffff" fill-opacity=".06"/>

  <g filter="url(#shadow)">
    <rect x="32" y="32" width="64" height="64" rx="17" fill="url(#paper-fill)"/>
  </g>

  <rect x="41" y="45" width="39" height="8" rx="4" fill="url(#line-primary)"/>
  <rect x="41" y="58" width="31" height="8" rx="4" fill="url(#line-accent)"/>
  <rect x="41" y="71" width="23" height="8" rx="4" fill="url(#line-primary)"/>
  <rect x="51" y="87" width="23" height="5" rx="2.5" fill="#d8ddd9"/>

  <rect x="73" y="38" width="19" height="19" rx="6.5" fill="url(#badge-accent)"/>
  <path d="M82.5 44v7M79 47.5h7" stroke="#ffffff" stroke-width="3" stroke-linecap="round"/>

  <circle cx="81" cy="79" r="13.5" fill="url(#badge-green)"/>
  <path d="M75.5 79.2 79.3 83 86.8 74.9" stroke="#ffffff" stroke-width="3.6" stroke-linecap="round" stroke-linejoin="round"/>
</svg>
